<mxfile host="app.diagrams.net" modified="2021-03-28T22:54:34.232Z" agent="5.0 (Macintosh; Intel Mac OS X 10_15_7) AppleWebKit/537.36 (KHTML, like Gecko) Chrome/80.0.3987.100 Safari/537.36" etag="7zx7pY_ptvYLsHtK3Cq8" version="14.5.3" type="github">
  <diagram id="eOAMFEbfvEA2DBmZgt7g" name="Page-1">
    <mxGraphModel dx="946" dy="591" grid="1" gridSize="10" guides="1" tooltips="1" connect="1" arrows="1" fold="1" page="1" pageScale="1" pageWidth="827" pageHeight="1169" math="0" shadow="0">
      <root>
        <mxCell id="0" />
        <mxCell id="1" parent="0" />
        <mxCell id="ftCxwbFL-EHSyCPPUWE5-1" value="" style="shape=image;verticalLabelPosition=bottom;labelBackgroundColor=#ffffff;verticalAlign=top;aspect=fixed;imageAspect=0;image=data:image/png,iVBORw0KGgoAAAANSUhEUgAAAZwAAAFiCAYAAADC2W5QAAAYcWlDQ1BJQ0MgUHJvZmlsZQAAWIWVWQdUVEuT7jt5hjxDzjmD5JxzzhlEYEhDEoYooAgikhRBBQRFRSSqqCigIghiQFGCD0REBJGgooAKKkH2EvR/+96e3bN9Tt/+prq6qqs61K25AHB1+kZGhiEYAQiPiKE6mBrwu7l78GMnARLgABEIAQFfcnSkvp2dFYDL7/a/l6VBAG20z2U2ZP27/38tRP+AaDIAkBeM/fyjyeEwvgsAKo0cSY0BAGME04XiYyI3cDCMmanwBGGcvIGDtvDRDey3hSs2eZwcDGHcDACO1teXGgQAfSdM548jB8Fy6N/BfcQIf0oEzPoDxjrkYF9/ALjUYB7p8PDdGxiuQBzmj4RxLozV/P4mM+i/yff7I9/XN+gP3rJrs+CMKNGRYb57/p+u+b9LeFjsbx2icKUNppo5bNgP+3AodLflBqaF8WyEn43thq9h/IPiv+V3ABCE4Fgz5y1+BDc52hD2H2CFsZy/r5EljLlhbBIRZmO1TfcLpJiYwxjeLYgESoy50/bYzIBoY8dtmaeoux1sf+NAqqH+9tjLvtRNvRv8nbGhzvrb8oeCA8x/y/+WGOzkCmMCAEhCHMXFBsb0MGaODnW03OJBCiYGG9r85qHGOmzMXxjGagERpgZb8pFegVQTh23+yPDo3/YiM4Ip5jbbuDgm2Mlsyz/IWrLv5vzZYdwYEKHv/FtOQLSb1W9b/AOMjLdsRz4LiHDethc5Ghlj4LA9dj4yzG6bH4ULCDPdoAvCmDM6znF7LEorBt6cW/JRVpExdk5b80T5hPha2G3NBxUHrIAhMAL8IBaufmA3CAGUZ7NNs/CvrR4T4AuoIAgEAJltyu8Rrps9EfDTESSCTzAKANF/xhls9gaAOJi+9oe69ZQBgZu9cZsjQsEUjMOBJQiDf8dujor4o80FvIMplH9pJ8NzDYPrRt+/afowxWqbEvtbLj/Db06MMcYIY4YxwUigOFE6KE2UFfzUg6sCSg2l/nu2/+FHT6H70G/RA+gx9MtdlDTqP+ZiDcZg+SbbFvv93WKUKCxTGWWA0oalw5JRrChOIINSgvXoo3Rhzcow1XB73hu28/8Pdv6x4G8+3+bDy+EReDa8Hl78nyPpJemV/0jZ8Ojf/bM1V78/XjX80/NP/YZ/87M/3Fr+kxOZiWxAPkS2I7uQLcgmwI9sQzYju5F3NvCfPfRucw/91uawOZ9QWA7lX/p8t3VueDJark7uvdzqdh+ICUiI2Thghrsj91ApQcEx/PpwFAjgN48gy0rzK8gpyAOwEVO2rqmvDpuxAmLt+Q+NfBAA1XkA8Mv/oYV/BeAKfMb5rf9DE/GGjxkGgOopciw1bouG2nig4duAAT5RHIAXjljisEUKQAVoAj1gDCyALXAC7sAb9nMwvJ+pIB4kg1SQAXLAUXAClIAz4DyoBpfANdAEWkA7eACegF4wAF7B+2cSfATzYAmsQBCEheggEsQB8UEikBSkAKlBOpAxZAU5QO6QDxQERUCxUDJ0AMqBCqAS6BxUA12FbkLtUBfUB72ExqH30BdoGYFE0CKYETwIUcQOhBpCH2GJcELsRAQhohCJiHTEEUQxohxxEdGIaEc8QQwgxhAfEYtIgKRBsiIFkDJINaQh0hbpgQxEUpH7kNnIQmQ58jLyFrzSz5FjyFnkTxQGRULxo2TgPWyGckaRUVGofahcVAmqGtWI6kQ9R42j5lG/0HRobrQUWgNtjnZDB6Hj0RnoQnQl+gb6PnyaJtFLGAyGFSOGUYVPozsmBJOEycWcxtRj7mL6MBOYRSwWy4GVwmpjbbG+2BhsBvYk9iK2DduPncT+wNHg+HAKOBOcBy4Cl4YrxNXiWnH9uGncCp4RL4LXwNvi/fF78Hn4CvwtfA9+Er9CYCKIEbQJToQQQiqhmHCZcJ8wQvhKQ0MjSKNOY09DodlPU0xzheYRzTjNT1oirSStIa0XbSztEdoq2ru0L2m/0tHRidLp0XnQxdAdoauhu0c3SveDnkQvS29O70+fQl9K30jfT/+ZAc8gwqDP4M2QyFDI0MDQwzDLiGcUZTRk9GXcx1jKeJPxBeMiE4lJnsmWKZwpl6mWqYtphoglihKNif7EdOJ54j3iBAlJEiIZksikA6QK0n3SJDOGWYzZnDmEOYf5EvMz5nkWIosSiwtLAkspyx2WMVYkqyirOWsYax7rNdZB1mU2HjZ9tgC2LLbLbP1s39m52PXYA9iz2evZB9iXOfg5jDlCOfI5mjhec6I4JTntOeM5yzjvc85yMXNpcpG5srmucQ1zI7gluR24k7jPc3dzL/Lw8pjyRPKc5LnHM8vLyqvHG8J7nLeV9z0fiU+Hj8J3nK+N7wM/C78+fxh/MX8n/7wAt4CZQKzAOYFnAiuCYoLOgmmC9YKvhQhCakKBQseFOoTmhfmErYWTheuEh0XwImoiwSJFIg9FvouKibqKHhJtEp0RYxczF0sUqxMbEacT1xWPEi8X/0sCI6EmESpxWqJXEiGpLBksWSrZI4WQUpGiSJ2W6pNGS6tLR0iXS7+QoZXRl4mTqZMZl2WVtZJNk22S/bxDeIfHjvwdD3f8klOWC5OrkHslT5S3kE+TvyX/RUFSgaxQqvCXIp2iiWKKYrPigpKUUoBSmdKQMknZWvmQcofymoqqClXlssp7VWFVH9VTqi/UmNXs1HLVHqmj1Q3UU9Rb1H9qqGjEaFzTmNOU0QzVrNWc0RLTCtCq0JrQFtT21T6nPabDr+Ojc1ZnTFdA11e3XPetnpCev16l3rS+hH6I/kX9zwZyBlSDGwbfDTUM9xreNUIamRplGz0zJho7G5cYj5oImgSZ1JnMmyqbJpneNUObWZrlm70w5zEnm9eYz1uoWuy16LSktXS0LLF8ayVpRbW6ZY2wtrA+Zj1iI2ITYdNkC2zNbY/ZvrYTs4uyu22PsbezL7WfcpB3SHZ46Ehy3OVY67jkZOCU5/TKWdw51rnDhcHFy6XG5burkWuB65jbDre9bk/cOd0p7s0eWA8Xj0qPRU9jzxOek17KXhlegzvFdibs7PLm9A7zvrOLYZfvrgYftI+rT63Pqq+tb7nvop+53ym/ebIhuYj80V/P/7j/+wDtgIKA6UDtwILAmSDtoGNB74N1gwuDZymGlBLKQohZyJmQ76G2oVWh62GuYfXhuHCf8JsRxIjQiM7dvLsTdvdFSkVmRI5FaUSdiJqnWlIro6HondHNMczwy3t3rHjswdjxOJ240rgf8S7xDQlMCREJ3Xsk92TtmU40SbyQhEoiJ3UkCySnJo/v1d97bh+0z29fR4pQSnrK5H7T/dWphNTQ1KdpcmkFad8OuB64lc6Tvj994qDpwboM+gxqxotDmofOZKIyKZnPshSzTmb9yvbPfpwjl1OYs5pLzn18WP5w8eH1I4FHnuWp5JUdxRyNODqYr5tfXcBUkFgwccz6WONx/uPZx7+d2HWiq1Cp8EwRoSi2aKzYqrj5pPDJoydXS4JLBkoNSutPcZ/KOvX9tP/p/jK9sstneM7knFk+Szk7dM70XGO5aHnhecz5uPNTFS4VDy+oXaip5KzMqVyriqgaq3ao7qxRramp5a7Nq0PUxda9v+h1sfeS0aXmyzKXz9Wz1udcAVdir3y46nN18JrltY4GtYbL10Wun7pBupHdCDXuaZxvCm4aa3Zv7rtpcbPjluatG7dlb1e1CLSU3mG5k9dKaE1vXW9LbFu8G3l3tj2ofaJjV8ere273/uq073x23/L+owcmD+491H/Y9kj7UUuXRtfNx2qPm56oPGnsVu6+8VT56Y1nKs8ae1R7mnvVe2/1afW19uv2tz83ev7gL/O/ngzYDPQNOg8OvfB6MTbkPzTzMuzlwnDc8Mqr/SPokezXjK8LR7lHy99IvKkfUxm7M2403v3W8e2rCfLEx3fR71Yn06fopgqn+aZrZhRmWt6bvO/94Plh8mPkx5XZjE9Mn059Fv98fU5vrnvebX5ygbqw/iX3K8fXqm9K3zoW7RZHl8KXVr5n/+D4Uf1T7efDZdfl6ZX4Vexq8ZrE2q1flr9G1sPX1yN9qb6brwJIuCICAwH4UgUAnTsApF44TfDcyvm2CxJ++UDArQskC31EpMMRtQeVgTbBIDFPsMW4CLwVQYIGSzNL20/XRF/FUMlYz9RM7CA9Ye5lGWJ9wzbD/pFjgXOZa40HwYvlI/DTCRAFiUKswuwibKLsYtziPBL8kvxSgtLCMqKyYjuk5eTkFRVUFDWUdJWNVcxVzdVM1E00TDQNtfS1tXQ0dJX0ZPVFDXgMmY0IRuvGX02mTF+adZu3WFRbHrNKsQ6xcbM1tlO2F3PgcmR0wjkjXSBXhBvKHe/B6MnhJbxTxltil7APny+nHwuZ5E8MIAWyBnEFC1KkQ1RDTcJcwikRybsLIiuizlKLo/NjcmOz4rLjjyQU76lObE16tRfsk07Ztf9k6qsDgum7D7YfwmQKZSlkG+Q45gYeTjySn1d99G7+cMHicaYTMoUWRYHFB06Wldws7T/17vTiGexZjnOS5VrnbSv8LsRUHqwqrK6uuVn7uG744odLP+txV9iuil/TbXC/HnUjq/F0U31z282uWz23e1ue3OlovdpWejelfVeHxj3ivanOm/drH5x6mPMoocvvsfkT2W767tmn95+d6onsNegj9U30X3ue+pf9gMggavD9i+6h+pcFwzGvXEbUXnO+Xh0dfdM+dmE86+3uCed3WpPC8C5bmv5r5vr7og8pH8NmyZ/InyPncuZvLMx91ft2bon0vfin1PKz1ZRfGuvrf1t/BeQMqgBtiWHBvMY24HLxQQQjGklaBtpVumn6IYYhxjdM74ifSF+Zl1jWWFfY1th/caxxLnF95Z7jmeId4evnvy9wU7BSKEc4TMRKVFIML/ZBvEuiRjJbiiJtKSMjSyc7t6NP7rp8kUKyIlnJXtlARUFVQI2otq7+WWNEs0urUbtcJ1c3Xs9H38JAwZDTCGH03viZyRXTfLNocycLFUs2yxWrN9b3bGpt8+2S7AMdHB31neSdBVxIrljXZbeP7iMe3Z53vOp3nvU+tuuQT7Iv1Y9C9vX3CHAKtA+yCbakWIaYhWqGyYYLRLDspolERK5G/aD+jF6LRccR44USNPY4JUYnFSa37J1KodnPlyqTpn3AJt3vYHzG4UOVmW1Zw9nfc5kPKxyxz4s4eji/ruDRsXfH1ws5i5SL7U6GlhwsPXOq+XRv2cyZX+eYyyXOa1fYXSBXxlYdqi6G77nuurlLxMuK9Y5Xoq7mXatr6Lw+cuNLE6aZ46bkLY3bFi1udwJbY9pS7qa2H+g4eC+j89D9zAfZD3MfHe46/Pjwk8PduU9znmX1HOpN70vt3/s87q+ogd2DkS9ihpJeHhw+9qp8pOH1g9GXbz6Ng7fECcF38pM6U+bTfjNn33/6qDyb9Kn18695zYW4L5e/vltkX7L8nvKj4ef0Cveqw1r2r87t9TdG6CN3ID+j2tGHMI5YcewC7iY+g+BAw00zSnueLpxenQHB0M6YzmRBZCD2ko4y27IwsDxlzWYzYYfYmzkiOIU4h7hyuHW4P/GU8prxfuMr4zfj/yxwXFBDcERorzC/cKuIt8iqaLGYkli3eID4qsQxSSnJNilHqSnpVBkRmSHZ3B0GO77JVcl7KtAptClGKgko9SunqSiojKvmqWmrfVIv1TDXWNQ8r2Wv9Uu7TsddF6t7Q4+sT9S/axBpyG/Ya5RmrGQ8bVJiagu/d9w2j7KQsnhnWWblYc1q/dymwNbBjmQ3aH/SwdtR2PGD01XnRBdjVwbXYbdK92gPA09az0GvMzuDvRW8V3bd98n39fKT8Fsid/ofC/ANVAxCBQ0G11JSQpxCpcPQYW/Cb0UU746PdI3SoPJGo6JnYwZi2+Pq48sS8vakJsYnhSb77925zy3Fab9Dqn2a/QGHdKeD7hk7DwVkhmZFZ6fkZOYWHC47UpPXePRefl/B6LHPJ1CFEkVexUdP3i9ZOSV72q/sxJnHZ1fLFc4HVJRc6KlCVWvVxNfW1328JHk5pL72ytw1lYb917sbOZrCmjtv8d1OaXnbatXW0i7fcbFT6v7VhwaPhh8ndPM97e053Of0XHQADH4cejf84TV4IzK+a6J2Cj2T+BF8qpgnf9VdUvvpvFq8sf5b//1tFIwKACcOAbDxf45DDQC5FwEQ2wMAG5x72tEB4KQOEAKmAFrsAJCF9p/4AcGJJwGQAA+QBGrADM4vw+CcsgjUgy4wAdYgdkgZcoSioRNQM/QazvmkES6IVEQ9YhTJgDRAxiMvIafgLM0LVYp6BWdiPugL6E8YFUwq5hmWBxuObcORcBRcO54TH4vvJygSigirNGSap7TqtNV07HS59Aj6JPrvDLEMS4yJTBBTNpGVWEFSI/Uyh7BgWS6wGrNOsWWyS7H3csRwcnC2cvlz03Bf4/HgRfJe4vOEM4I+gTxBWyEmoefCRSKeogKiU2IXxaMlNCQhyS6pfGlPeHfOy/bvaJGrlC9Q2KdIUXJU1lDhU4VUx9Ra1I9rhGhqa9FrjWjX6MTo6urh9Pr0GwyuGzYZ3TJuNbln2mXWYz5oMWo5bbVgvWKLs2O1F3VQc7RyIjsnuxS7trrNeJA89b0id5Z7D/gQfPX9ksjN/t8D1YKSgttDCKHOYRXhi7vNIsui5qK1YnJiR+OVEo7uWUhyTX6wTzulNdUybSI9K0M7E2T15Vw5fCqvIN/sGPL4/cL84oASw1PSZYJnRcqVKmwqo6pLa59cAvWqV20a3G8ENyXfPHH72p3+tqUO3k6zBzGPzj5+1r3WI9O38/mRgbtDpGHyyKXR2XHuCbVJvWn59/QfXswe+bxjrn3B7EvnN4XFkqXlH/Y/LywvrGqspfy6u3l/bK0/EV5/CaAKTIArCAH7wHFQBzrBKPgBkSA5yAaKgI5CDdBLBEBIwFl+GuIq4i2cx1sh05FtyBWUNuoAqhvNjg5EN2LwGG9MI5YRG4Z9gpPG5eEW8V74BwRZQhENkiaKZpzWmfYxnSFdK70W/R04i33EaM84Cuep68TjJFnSU+YIOPNsZvVlo2FrZg/kYOV4yLmHS5prnLuIx5YXx9vBt5/fQAAj8FSwUMhXWFZ4VaRbtEwsStxYgkvii+RjqfPSKTKespo7JOTY5fHyqwpzihNKL5Qfq9xWvahWon5Ig6rpqWWoLanDqLOoO6zXql9vcNWwwajJ+LZJm2mn2WPzXosXlm+spq0XbFbscPasDmKO6k7Wzv4ue11L3G66D3useQnutPCO2XXWp8cPIqv4RwTUBE4Fi1JCQq6GLoebRhTunonSou6NbotFxVnFFyVMJaonHUme3mecUp1Kn7bnwDR8n/RmWmQ9zDHL7T7ikDeWn3KM9/jdwsBi+pPNpf6nSWUPzu4tVzn/5cLVqtgarTrMxYHLF64kX/O6rtJI3zRx8/rtA3ds2tjvjnfUdFIfaD3Cdg0+qXm6v8erT+e5yADT4KMh55eTrxJfM49eG3MaX52onnSfZpjp+pA5a/mZce7FwtmvIYsq3xE/epZLV4N+KW6vPxJgAO3mDSAOVOAd4AbCwUFwBtwGw/D5F4QsoFioAhpE0CCM4JPfgcQh7ZFnkF9QFqgqNB5NRb/BOMGn3QY7gCPjfuILCeqESZqTtHq0I3RJ9Pz0XQzxjJKME0xniH4kCdJ35ocsZaxJbJ7sehxSnOxcNNwI7lWeZd5VfiCAhd9AeYRlRbRFHcSCxPdLnJS8Aefd87KMOxTkXOX3KVQo9iitqEiouqsVqPdrMmu5a1fozOlp6x82eGOkaJxjMm6mZV5o8cXKzvqSLa1dmP1jR0mnHOcPrhZutR54T4rXQ2/RXQd9Jv0MyZUByED/oHsU0ZCM0Jlwq4j6SJaoBOpYjFHs5Xj2hH17Pia5wedUJaUqlSPtSDrqYHLGl0yPrKvZ67lOh6uOLB91zL98jHCccuJBkVRx7sm5UtdTd8pEz+TDd7//+e4LmpVV1Uw1ibVTFx0vtdSLXsm7utTgff1Bo0zT0eb5W/a3L98htAa2tbYTOwLuNd5HPbB7WPpo4rHEE0p35dPxHs5e+76D/defvx0gDMq9cBiivjwyXPPq3sjA66nRhTer49Bb7ATmHWYSTC5PfZoenXn6vvlD+cfM2YhP1p+l5rBzb+abF7K+eHyV+PrlW8ti2pLRd8z3zh8pPzV/LixfWPFYJaw2rpF/0f26tu6+sf7RgYoKm+EDojUAAD26vv5VFABsAQBr+evrK+Xr62vn4WRjBIC7YVvfkzZjDSMAZ7k2UN+VxX99y9n61vS3POafLdiMRJta4Ui02cJRCfwXjmXesc66GjgAAABWZVhJZk1NACoAAAAIAAGHaQAEAAAAAQAAABoAAAAAAAOShgAHAAAAEgAAAESgAgAEAAAAAQAAAZygAwAEAAAAAQAAAWIAAAAAQVNDSUkAAABTY3JlZW5zaG90mAl7YgAAAdZpVFh0WE1MOmNvbS5hZG9iZS54bXAAAAAAADx4OnhtcG1ldGEgeG1sbnM6eD0iYWRvYmU6bnM6bWV0YS8iIHg6eG1wdGs9IlhNUCBDb3JlIDUuNC4wIj4KICAgPHJkZjpSREYgeG1sbnM6cmRmPSJodHRwOi8vd3d3LnczLm9yZy8xOTk5LzAyLzIyLXJkZi1zeW50YXgtbnMjIj4KICAgICAgPHJkZjpEZXNjcmlwdGlvbiByZGY6YWJvdXQ9IiIKICAgICAgICAgICAgeG1sbnM6ZXhpZj0iaHR0cDovL25zLmFkb2JlLmNvbS9leGlmLzEuMC8iPgogICAgICAgICA8ZXhpZjpQaXhlbFhEaW1lbnNpb24+NDEyPC9leGlmOlBpeGVsWERpbWVuc2lvbj4KICAgICAgICAgPGV4aWY6VXNlckNvbW1lbnQ+U2NyZWVuc2hvdDwvZXhpZjpVc2VyQ29tbWVudD4KICAgICAgICAgPGV4aWY6UGl4ZWxZRGltZW5zaW9uPjM1NDwvZXhpZjpQaXhlbFlEaW1lbnNpb24+CiAgICAgIDwvcmRmOkRlc2NyaXB0aW9uPgogICA8L3JkZjpSREY+CjwveDp4bXBtZXRhPgpvLO/kAABAAElEQVR4Ae2debAV1dW3F4PMoIBBQJnEAQRFQUUQIiqI4IQoqAmV902i+cNKUlaZqJXPRCRqoklMSqOWCWWZSCIk+IKzIAqiEQWVSUQRRRmUQQTEgVE/nm329dxDd5/ue8/Q59zfoi6nTw97r/3sPnv1Hnqter169frKJCIgAiIgAiJQYAL1C5y+khcBERABERABR0AGRzeCCIiACIhAUQjI4BQFszIRAREQARGQwdE9IAIiIAIiUBQCMjhFwaxMREAEREAEZHB0D4iACIiACBSFgAxOUTArExEQAREQgYb5QjBkyBBr3LixzZgxo9ZJnnfeeXbQQQe5dJYtW2avvfZardP0CeRTT59mTT/TpEtNy6DrREAERCAugZwG5/zzz7czzjjDvvrqK9uxY4dt3rzZnnrqKXv99der5dG7d29r2bJlXgwOxqZt27bWuXNn2759e14NTj71rAYg48tNN91kTZo0sXvuucfeeecd+973vmfHH3+8vfnmm/aXv/yl6sxi6FKVmTZEQAREoMQEchocr98jjzziDEq/fv3skksusffff98ZA3/82WeftUaNGvmvtfp84IEH3PW/+93vapVO0MX51DMoffbVr1/fGjZsaP3793cGp2vXrm5fvXr1ql1SDF2qZagvIiACIlBCArENztq1a+3tt992PZwxY8bY0KFDbdq0acaw0JlnnumKsGnTJlu0aFFVcU4++WTXO6K3gqxZs8buuOMOtz1hwgTbunWrHXLIIe47Q2d///vf3XbUfz/+8Y+tU6dOdsABB9jnn3/u8ps6dapdeOGFdsIJJ9hdd91lGzZscElceeWVrqdx++23R+o5fvx427hxox122GGGUUCXSZMmuTRGjhxpp556qhsuhAFleeKJJ2zevHlRarr0MDR9+vSxFi1auLL6C6KYRely4okn2llnnWVt2rSxPXv22PLly+1vf/ubSzaI9T/+8Q+76qqrbPbs2YZx80IZ2M8+epBhaUblF1V/UdehA9euXLnSDj/8cGvVqpWtX7/ebrvtNqfeFVdcYV26dHE96MmTJ3uV9SkCIlABBBIvGvjPf/5ju3fvdo0e5WfIiIZr27Zt1rx582pIBg4c6AzDww8/7BrpLVu2VB3n3Hbt2tn8+fNt9erVzlh069at6njYxq5du+z555+3hx56yD744ANnDGjUMXSk+e1vf9td+q1vfctIzxufKD25DiO2YMECW7dunTMSTZs2dekMGDDAPvvsM5szZ45rHBk2ZK4ql5BO69at7ZRTTnE6fPnll1WX1EQX8mV4k54TvBmeY5gOI4sEsWb4k6FQGvBM4TqMIDqGpZkrv7D6y3UdejRr1syOPfZYZ5RnzZplH330UZV6cEc3hiQlIiAClUUgscGh+Dxd+waZXgtP0MzvZItvNDBQnOOHyvx5GBoMx3333Wd79+51Dag/FvbJHMi7775rHTp0cIaAHsmhhx5qq1atcgboyCOPdJeedtpprreCgUSi9OT4e++953ps6Env6aSTTnKGhwaUNB577DFbvHgxp8YSGNHj69Gjh3uaz7yoJrowPEdvgDQPPPBA27lzp33xxRdGbwIJY43ROfjgg53x/c1vfmNnn32268nRs2GOLCzNXPmRZ1D9xbmOa+nV3H333e5BhPr3Qj2+8cYbrr78Pn2KgAhUBoHYQ2qZxeUpm+GsXPLyyy+7Hsdll11mF1xwgWuwp0yZUnUZjSFCw0kvAiOSS66++mpr376961HR20EwEAgNFcND+zxgG4bnww8/dIbEHczxHw05wnAawhM8vSR6CN7Q0CNIIgxBks4LL7zgjFfca4N04akfwQDyhzAk6RmEsaZhP+6446xv376uZ8YwFg8L9CrogSFBaUYdcxft+y+o/rg3kKA03YH//hfG8tFHH808TdsiIAIVRCCxwaHnQAPvG5soFvQW+OMpnOv4ZGjKD3PxpO6FRvDjjz/2X90njb03JuxgnoJ5FuaO5s6d6+ZlRo0aVXXNk08+aYMGDXJGDmPx9NNPVx3LtUFe2cLT9uDBg93wD8N4cQxiZhroyV9SCdLl008/dckwBAnDbAljjdFjWJDhRYbh6A02aNDAli5dalFpjhgxIjI/DgbVX1SamTrzkBEk3CfUHb0nyioRARGoHAKxh9SYB2BinsUCDMfMnDkzJwUWFzCkRK8BA8U8RuZcBsYDI3LppZe6FW6+d+ETxgDxRM7yYRpKhCE0nvbpxTDslS0MjR199NFuiA8DVBvh/R8aUBpsJvrpKZRKlixZ4soEL1YKsnScXiN6IWGsKQPDnfDDaNIDgd+KFSssKs2oYy7Dff8F1V+c6/z1QZ/Mx/HQcMwxxwQd1j4REIEyJhC7h3POOee4hgvDQUPun1CvvfZaN8Tll/z+8Y9/dAbpV7/6lR111FFuUp/5DP5ojPxwEcx4kme4jWvpTfDUnSmvvvqqmwy//PLL3RMvq82YHMfocQ09pUwDxrU8FWOMWLadKVF6Zp7nt30vg4UE5MnkOsNTCHNStZGa6MIQFL0YegDjxo1z7GDqeztRrDHcDO2xqg1m9NQWLlzoihCWZq78uDis/sLSTMLM809yjc4VARFIN4F6hY74yZMqT9TZwyN/+MMf7LnnnnOr3FgwwHBPXDniiCPcUBsNaLawjHnYsGFuWTMGK1/CUmKG11h1dt111+Ur2RqlwyozhhphRm/TSxhrfzzqMyxNrgk6Fqf+gq6L0kHHREAEKptA7B5OTTEwkR8l2cNoUef6Y7zDESQ//elP3dART+f5Mja898MLrUzOM4TEuzillsx3nTJ1ycU689zs7bA0OS/qWFT9RV2Xnb++i4AIVD6BghucMIRvvfVW1eKBsHOS7scoMCyXZLFArjzQkx4VQ3i49PFDWLmuq/Tjhai/Smem8olAXSdQ8CG1ug5Y5RcBERABEfiaQOxVagImAiIgAiIgArUhkLchNZbnhoUn4CVAJtx5b4OJbr9CCsWjjkWlmbTQhQx5EKVLPssQlY+OiYAIiEDaCeQ0OPkIT4B3ACbeP/nkk2rLooETdSyf7vtzhTz47ne/697AnzhxYl7rLJ9lwMFltkduJubvv//+vOqsxERABESgEARyGhyfaU3DE7A0lsYe78uvvPKKT859Rh3jBJxUZjew1RJI8MX7cQsLeYAHZt5VybfkswzoxlLwzB5i5ntN+dZd6YmACIhAPgnENjg1CU8wfvz4Ks/Ko0ePdp4KXnzxRXv88cct6hjDUGEhDxiCIx4PHghwWIknAFal8Rb9DTfc4Dw+Ez4A+fWvf+2MFi8ihsm5557rPAlg2Ihjc/PNN7tT//Wvf7k8okIehKXJ/qgyBIUS8GEbotLkGF4Dst9pYn9Y2AaOheWXK6QD10pEQAREIF8EYhscnyGek/FfRo8AwdU+S4Zxt5LdQ8AQ8FY7rkp40sfDMZ6SkahjUWnSSPbs2dO5ZuG9EwwP7u4RXjDNDB2AcfJelN0JAf8RuZTQCng55lxeRkUwsAwBet9s//73v52PL3ySxXm/JKoMmaEEeIGT93viSvfu3e2aa66pOh0DjnNQloRjdAkBgXsYYvjgRw3Ho2H5UY6alq9KAW2IgAiIQEwCiQ0O6eJSJTM8AUYEdzKZjjY5D+PEkz5C45fpbibqGOmFpUmDi6fje++916VLI1sbwfcafwzv4WcsMz3c+BBzJyzkQVS+UWXwRhAXORiLJILR9g4yuY7vCGEb8DTAH563eQjAfxoGJyy/XCEdXML6TwREQATyRKBGBidueII86VgtGRpPPAkXS2oT8iBMx7BQAmHnZ+6n5+WjfGbujwrbEJVfIcqXqZe2RUAERMATqO834n4mCU8QN80k5zF05Ifzsq/DkacfUsPnWZDgFDK7J+bPo1eQLTgqJfYPkURxm18b9zE+beaUbrzxRreQgl4UYRt8qG1/TpJP5mgYliOWzE033bTfHE9UfoUoXxLdda4IiEDdIRDb4NQkPEEhMDLERWjqiy66yL3DQ8A1H1aagGToiedkGuEgCQp5wHms9mI1HYaKuZ9MyWfIA9INCyWQmWfYNvNVzM/4P4bQEIxlWNiGXPnlu3xhumu/CIhA3SYQe0itJuEJaoo2yn0/oZ6Jn8NkN40uvZoZM2a4rPDvxeT/lVdeWRVKINvNfVDIAy4mbkzXrl3t4osvdumzjNo7AA0LeRBVvqgyRIUSiEqTY8T64c8Lc2N33XVXZNiGXPnVpHw+f32KgAiIQFwCZetLjZ5Mx44d3YQ/oaS9MOzFfh8W2u+vzWchQh7UJpRAWFmiwjZE5VeI8oXpqP0iIAJ1l0DZGpxiVZkPecCQ2+9///tiZVu0fCq9fEUDqYxEQARyEog9pJYzpQo9oRAhD9KEqtLLlybW0kUE6joB9XDq+h2g8ouACIhAkQjEXqVWJH2UjQiIgAiIQIUSKJnBwR8aLlgqQfCmMHz48MRFqel1iTOKcQGeFrKXg8e4TKeIgAiIQGwCOedwMArf//73XYIsMeZdF97bCHrbPXau+0486aSTnFuWfK4mS5J/Ps+taQiCml6XT93Hjh1rxx57rHuHZ+/evYZXAvzGSURABEQg3wRyGhyfIT6/cKvC8lqehnGTH+S12J9flz5rGoKgptfliy3+8HC6ygPEzJkzbcSIEe49Juo10+9dvvJTOiIgAnWbQGyDg0PIl156yTmOPO644wyvyTRMuLo5/fTT3XAMrvN5gfKhhx6y73znO+4FRd6Mxxszrv/xgzZnzhzXuIGdFxJvvfVWVwMYMB9ILMydfpyqmjBhgq1cudJ5kW7VqpV7AZTAZbiPwSsBbnFwPkp+9NJy6Rnl9p8hsbAwCoRf2Lhxo3M5gxeAZcuWOVc2lKGm1/G+DC+74r4H49+2bVsjFMO8efMcmiuuuMJ5WsAD9uTJk3PiwkMDaXE93q1xXMq7PLCSwcmJTyeIgAgkJBB7Dqdv377G2/Pf+973bMOGDW7ohSfkYcOGGUNtGBLcxtAgMgyHcaExo2d08MEHO9cxDMcxfOOFBnPBggWuceOaHj16uEOZ7vRpUHG5H1cwcORBYz9r1iznWZq5CSKX4nSUXgVhrumlEesml57e7T9GFLc6vnzoQyNNehjU7NAMfO/UqZMr37p16xwT72G7ptcNGDDAeYKGNcaUcnnfcehD+ri3oUxxhIcIhGsQP4fjv7ud+k8EREAE8kQgtsHBDT4NFL0YGvX27dsbRojGiQiUOI6cPn268+nF3ASyfft2e/jhh12PgmEbwgpkNpB4fZ46dardfffd7hxvjHyDift+HE/6aJ1xy7x+/XqXJsbqvvvuc8NENNC8vHnggQe6uaMvvvjCPcnn0hO3/++++66L65Pp9p/rCEGAfjAJEso8bdo0dw4OQ5m3QmpyHQYZg0BYB9z7BM19EW4A56KkH0d4GKBMGFFcFw0ePNhdlq8oq3F00DkiIAJ1h0DsITWGhPAsjPz2t791T+wM6yA0dAhP7jS+PN0zbOX9mPGJ8WBSmqE1L/SIvBDjxXtMjnKn78+P+qRHkSmtW7d2X2mw/VM8vS16Lw0aNIjUM8rtf2YeQds+/DPskOxeUNA17Au6Dpc9cPSGJruMXIfRTyoEnKOnxzAfvUI8Y2OMJSIgAiKQbwKxDU5mxhgHGnHmQRBc4y9dutT1AujBYHQYvvIGJ/PazG16HV7oNa1YscJ9pdfAH3MJzBHxyTASQ3lxJLvB9AHLmHMinUz5wQ9+EKqnd/tPL2Xu3LmuUSbaaVzJVf6wdIKuw6jTA6EXyFwLkVSzBVYYJnqOcRd0sFiAP4S04ZH5IJCdh76LgAiIQE0JxDY49Axo8HCaycQ7CwjwzsxQG0NoTDIzNMMEOY2jj5IZpRiGikadBQgYKm/AcKePAaNnQNqEI8ArdE1lyZIlznCRF8N89MRonJl7ySVRbv9zXZvP4yzGGD16tDGPQ6+MhRvZwrAbIbcJHR3X4Jx99tluyJD5HxYl0MPB2EtEQAREIN8EYhscJvJ58qaRZhXYM888YwQPw/Bw7Ec/+pE7zhwCT+CZBifoiZ19GJHLLrvMGSnmO2gokVzu9JNCYPiJRhQjM27cOKcnQ37ZvZ1sPWm0KdvQoUOdjvSwMg1fVAiCIB19+jW9jgUW6MMCCOapEIYqs8Xnk70/6Du9GowOwnzOU089pSG1IFDaJwIiUGsCefGlRuAyVpgxWR00txClJe/10ED63o0/N8qdvj+nJp+sTmMCn5Vq9HbiSJTb/zjX5/scVvfR2yRY3HXXXVfr5BmyxHD5+aFaJ6gEREAERCCAQF4MTkC62lUAArwTxAoyFjswHMmijT//+c8FyElJioAIiED+CcQeUst/1koxKQHmzOhtMa/E0Ff2kGDS9HS+CIiACBSTgHo4xaStvERABESgDhP45qWYOgxBRRcBERABESg8ARmcwjNWDiIgAiIgAvsIyODoNhABERABESgKARmcomBWJiIgAiIgAjI4ugdEQAREQASKQkAGpyiYlYkIiIAIiEDO93CGDx9unTt33o8ULx/iXkXHqqMRF90T1e8Icy/qlstvpbah47PLru8ikEkgp8HBozMB1LIFp504etSx6mTERfdE9TvCnIPbcvmtZOuu7yKQTwJ68TOfNJWWCIiACIhAKAHN4YSi0QEREAEREIF8EpDBySdNpSUCIiACIhBKQAYnFI0OiIAIiIAI5JOADE4+aSotERABERCBUAIyOKFodEAEREAERCCfBGRw8klTaYmACIiACIQSkMEJRaMDIiACIiAC+SQgg5NPmkpLBERABEQglIAMTigaHRABERABEcgnARmcfNJUWiIgAiIgAqEEZHBC0eiACIiACIhAPgnI4OSTptISAREQAREIJSCDE4pGB0RABERABPJJQAYnnzSVlgiIgAiIQCgBGZxQNDogAiIgAiKQTwIyOPmkqbREQAREQARCCcjghKLRAREQAREQgXwSkMHJJ02lJQIiIAIiEEpABicUjQ6IgAiIgAjkk4AMTj5pKi0REAEREIFQAjI4oWh0QAREQAREIJ8EZHDySVNpiYAIiIAIhBJoGHok5Qf+3//7f3bQQQfZ559/bjfccENsbXv27GnvvfeeffHFF7Guufjii61///7u3Oeff94eeeSR/a6rqS77JZRjR6F0OfLII61Jkya2dOnSHBp8c7hQuvTq1csaNmxoixcv/iazHFuF0iVHtoGH64ou3bt3t9atW9tbb71l27dvD2SRubOucOnTp4+tWLEir+1LJsdy3y5bg3PAAQe4iv2///u/WHUwaNAgGzlypDVr1sx2795tL730kj300EM5r3388ccNQ/Ozn/3MGjRoEHh+Ul1OOukkO/XUU+2www6zjRs32m233RaYbvbOfOty1FFH2bhx46xVq1Yuq23bttmiRYts2rRp2Vnv9z3fupDBrbfeao0bN3Z5ffLJJ7ZkyRKbOnXqfnln7yiELj6PCy64wE4//XR799137Y477vC7Qz8Locstt9zi7luf6aZNm+zmm2/2X0M/C6ELDwSjR4+2tm3bunwxNr/85S9DdfAH8q3Lueeea0OHDvXJV33Onz/f/vnPf1Z9D9rIty7kcdFFF9kJJ5xgzZs3t127dtnKlSvtr3/9a1D21fbF0aXaBWX+pWwNDty/+uor27x5c6wqOPPMM+3TTz+1f/zjH3beeefZgAED7JVXXrH3338/8np6QnF6Q0l0GTVqlO3cudOlW69evcj8Mw/mWxd6EuvXr7cnnnjCPaWOGDHCMIazZs3K+dSab10o54IFC2zZsmW2d+9e93DQr18/p8vWrVszMey3XQhdyKRTp06ud8sDSlwplC70Pn0PlDziSCF0oaHnAWvKlCm2evVq44k+juRbl1dffdU9rPm8jz76aOvbt28VI78/6DPfujRt2tTlzYPAnXfe6Qwh9y5scvXU4+oSVI5y3FfWBicucCqe7v8zzzzjGlieQmhsTz755JwGJ24eSc578skn7YUXXrBrrrnGkhicJHnEOfeNN94w/rx07tzZhg8fbscff7zr1fn9xfrM7M3wJN21a1fr1q2bLVy4sFgqVMvn/PPPdw80LVq0qLa/FF9omN55553YD1iF0LFHjx7Wvn17e/rpp2358uXGg8C6desKkVXOND/88EPjz8uQIUOMBt8bZb+/GJ9t2rRxQ9IbNmww/t5++2334AarXAanGPqlKY86YXDatWvnmK9du9YuvPBCN6RGD6Nly5YlqQuMTRqlS5cubjgg0wgVW0/G+qkvehcffPBByYwNDRg8HnjgATeEVGwO2fnR8+SPXjr3z4wZM7JPKfj3Qw891D0gMRTrRwzefPNNe/DBBwued1QG3hDOmzcv6rSCHcPorlq1ynr37m2XX365dejQwbZs2WJz584tWJ7lmnCdWKXGvA1y4IEHGl3v2bNnO6Pj5wvKtfLyqTfj4TQkr732Wkmfovmx0rBRN2vWrMlnEWOnxYMIBocJ8VI8MWcrygPAo48+ai+++KJ9+eWXbv4v+5xifPc9PRbrzJw50z0QMEpAg19KYXicYdhSNvDcq40aNTIW4NDjYbhRsj+BOmFwWMmGnHHGGW7yl0UADKnRy5GYG1ocNmyYe0qbPHlySZEwBs6qP+ZzWB3IU32xhTk+hl0ZojnnnHPcvcJDC0aoFDJp0iR79tln7d///rdb7MIiDxbBFFv87wgDSA+LeRwaeuZOSimHH364G9pjOKsUQk/4tNNOc/OP1157rbEQgGF8FptIqhOoEwaHlWAIRmb69Ol2xBFHuCdoVkLVdWEYgEUMNK4TJ05MDQ4mhRHqqtjCkyoN6cCBA23w4MHO+Bx88MElMX7ZZWcuB/GrxLKPF/K7X6DjF1HwwEaPi0UEpRJ65vRIX3/99VKpYMw31q9f3/WIUYJFN6xUo6cuqU6gTszhMHHHBCeNCEaHm5RtnqJLIQxBsIgBXVg0wJAAP2bW7xdTmJQfO3asY8FyUv+kynBAsYezeGJn3oZl2az6oaFHWEVXbLn//vurZcl7XozJx1kWXe3CPHxhyIonaBZOMNzIvbJnzx43MZ2H5BMlwXArDye8y8a9etxxxzljQ52VSo499lg3r0UjXyqhbujNsDKNeUd65jy0sHhAUp1AnTA4FHnOnDnGst+rr77aNbC8h5NrSXR1VPn7RvebH62XSy65xK36KYXB8e/g8G6FF+a4im1w/NJS/5It73fQkKFLXRae3k855ZSqeRuenLl3S7Ww47nnnrOzzjrLrrjiCtuxY4fTo1QrsTDAHTt2rOpZlOo+YbUcDPhNX3XVVVXv4dDmSKoTKFuDw3svdGVvuukmu/7666uXKuAblf/yyy8bT0RJlpeOGTPGDa3QEyHPIEmqy7333huUTM59+dYFJjX9UeRbF5ba0pAy6QrPJEuh861LdkXceOON2btCv+dbF5byM1xELwdhOXKcN/s5N9+6kCb68MfcGivUSqkLDf3Pf/5z1EokheDCPBvCKAF15Ic+cykWR5dcaZTT8Xr7Gu3gVrScSiFdRUAEREAEUk+gTiwaSH0tSEEREAERqAMEZHDqQCWriCIgAiKQBgIyOGmoBekgAiIgAnWAQKJFAzV1w1+IkAB1oG5URBEQARGoKAKJDE5SN/yFDAlQUbWgwoiACIhAHSCQeEiNJav+jeNcfLyDP+JCcA0vrfnlnVHXsqSwVG4qovTSMREQAREQgZoTSGxw4mblQwLg/JC3xTNDAsRNQ+eJgAiIgAhUDoGCGZy0hQSonCpTSURABESgPAkUzOAoJEB53hDSWgREQAQKRaBgBse7MldIgEJVndIVAREQgfIiUDCDo5AA5XUjSFsREAERKDSBRMuikyiTtpAASXTXuSIgAiIgAvknULAeDqriiZiwtIQEwAsw3ppLFRIg/+iUogiIgAiIQBICiXo4Sd3wY3AKFRIgSSF1rgiIgAiIQOkJKDxB6etAGoiACIhAnSBQ0CG1OkFQhRQBERABEYhFQAYnFiadJAIiIAIiUFsCMji1JajrRUAEREAEYhFItGigpuEJYmmScdLFF19s/fv3d3uef/55e+SRRzKOVsYmq/aaNGli+JqTiIAIiEBdIJDI4CQNT3DSSSfZqaeeaocddpjxIuhtt90Wi+njjz9uGJqf/exn1qBBg1jX5DqpprrkSjfp8aOOOsrGjRtnrVq1cpdu27bNFi1aZNOmTUuaVF7OTwsXCpMmXfICV4kUlECa7pc06VJQ6LVMPJHBIa8k4QlGjRplO3fuNMIN1KtXL7aqnM9fPqWmuuRTB9Jq2LCh8579xBNP2Pbt223EiBGuoZ01a5b7nu/8cqWXFi7omSZdcnHT8dITSNP9kiZdSl8z4RoUdA7nySeftAkTJpSkIc0uclp0eeONN+zuu++2l156yZYtW+b+cHR6/PHHZ6tclO9p4UJh06RLUeArk1oRSNP9kiZdagW1wBcX1OC88MILBVY/fvJp0iVTawLS7dq1yzBEpZA0cUmTLqWoC+WZjECa7pc06ZKMYnHPLqjBKW5Ryi+3oUOHGnM6r732WuwoquVXSmksAiIgAl8TkMEp0Z1w8skn27Bhw2zVqlU2efLkEmmhbEVABESgeARkcIrHuiqn3r17uwnyTZs22cSJE6v2a0MEREAEKplA4lVqSWD06NHDWrdu7VZmsUptwIABbuhoxYoVSZLJy7lp0aVr1642duxY27t3r82fP9/69u3ryrd69Wpbs2ZNXsqaJJG0cEHnNOmShKHOLQ2BNN0vadKlNLURL9eCGpzTTjvNevbsWaXJJZdcYsuXL7dSGJy06ILB8e/gjB49uorN7NmzS2Jw0sIFEGnSpapitJFaAmm6X9KkS2orbJ9iibxF33DDDXbQQQfZZ599Ztdff33ByjVmzBgbOHCge3eHEAfTp08vWF5KWAREQAREoDgEEhmc4qikXERABERABCqRgBYNVGKtqkwiIAIikEICMjgprBSpJAIiIAKVSEAGpxJrVWUSAREQgRQSSLRKrSbhCWrihr8uhCdI4b0glURABESgoAQSGZwk4Qlq44a/EOEJCkqxjBP/xS9+Ye3atatWgvfee8/+9Kc/VdtXjC9y8V4MypWTh+6X8qvLRAaH4sUNT1AbN/yFCE9QflVTHI15IXf9+vX27LPPVmVI2IRSiFy8l4J6+eap+6X86i6xwYlbRLwfZ3pA7ty5sw0fPty54Se4miQ9BPbs2eO8HpRaI1y843X3mmuuSRQ/qdR6K//SEND9Uhrutcm1YAYnW6lSu+FHH+aT+vTpY7iRwa1MKSVNurRt29auvfbaKhxz5861efPmVX0v1oZcvBeLdGXkk7b7JU2/6bTWcFFWqaXFDT9uZQYNGmTHHHNMyesjTbrQw/nkk0+q/ojSKhEBEUhGIE2/6WSaF+/sgvdw0uSGn7mJDz/80LZs2VI8wiE5pUmXbdu22T333BOiqXaLgAjEIZCm33QcfUtxTkENTtrc8BPWmb80SJp0SQMP6SAC5U5Av+ncNVgwg0P3Mk1u+HOj0BmlJiAX76WugfLKX/dLedUX2hbU4KTJDX/5VU1xNGaZe1pELt7TUhPloYful/Kop0wtE3mLVniCTHTaFgEREAERSEIgkcFJkrDOFQEREAEREIFMAkVZFp2ZobZFQAREQATqJgEZnLpZ7yq1CIiACBSdgAxO0ZErQxEQARGomwQSrVKrSXiCXr16GY48Fy9eHJuwwhPERqUTRUAERKBsCCQyOEnCE0Dg1ltvtcaNGzsYuE5ZsmSJTZ06NScchSfIiagiT5C7+Yqs1oIVKk33S5p0KRjwPCScyOCQX9zwBJy7YMECW7Zsme3du9dGjhxp/fr1s1mzZtnWrVs5HCoKTxCKpqIPyN18RVdv3guXpvslTbrkHXQeEyzoHA69meXLl9uKFSvs/ffft6ZNm1q3bt3yqL6SqiQCuJufMGGClSoeTyWxrAtlSdP9kiZd0lz3iXs4SQvDfAwRJTt16mQffPCBLVy4MGkSeTs/Te7Dpcv+1Zo2d/P7a6g9aSKQpvslTbqkqY6ydSloD4fMOnToYIceeqiby1mzZk12/kX9nib34dKlqFWvzERABFJAoOA9nDvvvNMV87LLLrP+/fvbypUr3dxOKcqeJvfh0qUUd4DyFAERKCWBghscX7hXX33VGZwjjjiiZAYnTe7DpYu/M/QpAiJQVwgUzOAQWZN5m0WLFrnFAoMHD3ZM169fX1fYqpwJCcjdfEJgdfz0NN0vadIlzbdFwQwOK9L69u3rejUAYAgJ4zN79uw085BuJSQgd/MlhF+GWafpfkmTLmmuykTeopOGJ2jZsqWxGot3d5KsThszZowNHDjQ6tWrZ3PmzLHp06enmaF0EwEREAERiEEgkcGJkZ5OEQEREAEREIFAAgVfFh2Yq3aKgAiIgAjUOQIyOHWuylVgERABESgNARmc0nBXriIgAiJQ5wgkWqVWk/AENSGq8AQ1oaZrREAERCDdBBIZnKThCXzRL7jgAjv99NPt3XfftTvuuMPvDv1UeIJQNBV9IE0u3qVLRd9qKlyJCCQyOOiYJDwB5/PyJy5tdu/ezddYovAEsTBV3ElpcvEuXSru9lKBUkCg4HM4559/vm3evNk+/fTTFBRXKqSZQJpcvEuXNN8p0q1cCRTU4AwZMsS6dOliM2fOTAUfXkJlfujkk08uuT7SZf8qSJOLd+myf/1ojwjUlkDBDA5eBjA4b731li1durS2eubleoUECMaYJi7BGmqvCIhAJRAomME577zzrHnz5rZp0yY755xzrGHDhtasWTNnhEoFTiEBgsmniUuwhtorAiJQCQQSLxqIW+hGjRrZ3r17nU80ruE7Dj1Z/YN/tFKIQgIEU08Tl2ANtVcERKASCBTM4Nx///3V+OD4c8uWLbGWRVe7UF/qDIE0uXiXLnXmtlNBi0igYAaniGVQVhVCIE0u3qVLhdxUKkaqCCTyFp00PEFNS6rwBDUlp+tEQAREIL0EEhmc9BZDmomACIiACKSdQMFWqaW94NJPBERABESguARkcIrLW7mJgAiIQJ0lIINTZ6teBRcBERCB4hJItEpN4QmKWznKTQQ8AVwhNWnSJDVeO7xe+hSBJAQSGZyk4QluueUW513AK4TXgZtvvtl/Df1UeIJQNDpQxwgcddRRNm7cOGvVqpUr+bZt22zRokU2bdq0OkZCxa0EAokMDgVOGp4AP2relxphB+KIwhPEoaRz6gIBXEKtX7/ennjiCcMF0YgRI5y3jlmzZrnvdYGBylg5BBIbnKRFx3i88847LkRB0mt1vgjUdQJvvPGG8eelc+fONnz4cDv++OPt+eef97v1KQJlQaDgBgffafwRDweX7zNmzCgZGMbB+/TpY6tXr7b58+eXTA8yli7B+MUlmIvfS7iPXbt2VTNC/pg+RSDtBAq6So0ns0cffdRefPFF+/LLL+3UU08tKY80ueGXLsG3grgEc2Hv0KFDjTmd1157TSMG4Zh0JMUECtrDmTRpUlXR6eEwFDBo0CDX06k6UMSNNLnhly7BFS8uwVwIGjhs2DBbtWqVTZ48Ofgk7RWBlBMoqMHJLLtfMNC2bdvM3UXdTpMbfukSXPXisj+X3r1726hRo1xsqYkTJ+5/gvaIQJkQKJjB4YmM8eaFCxdahw4dbMCAAbZnzx57++23ywSN1BSB0hNgiHHs2LEuthTzjn379nVKMQ+5Zs2a0isoDUQgAYGCGRxCTJ9yyilV8zZMdPL0mrniJoGeOlUE6iQBDI5/B2f06NFVDGbPni2DU0VDG+VCIJG36KThCQ455BDXywHG8uXLY783oPAE5XL7SE8REAERiE8gkcGJn6zOFAEREAEREIHqBAq6LLp6VvomAiIgAiJQlwnI4NTl2lfZRUAERKCIBGRwighbWYmACIhAXSaQaJVaTcMTdO/e3Vq3bm1vvfVWrIUDF198sfXv39/VC/6iHnnkkbpcRyq7CFivXr0MR56LFy8uOY00hUqQLiW/HRIpkMjgJA1PwI+EpZz+ZU/eIv/lL3+ZU0GFJ8iJSCfUIQK33nqrNW7c2JX4k08+sSVLltjUqVOLTiBNoRKkS9GrPy8ZJjI45JgkPMG5555rGKkpU6Y4h5k4zowjCk8Qh5LOqSsEFixYYMuWLXMvf44cOdL69etnhCfYunVrURGkKVSCdClq1ects8QGJ27OPXr0sPbt29vTTz/t3sHhx7Fu3bq4l+s8ERCB/xLI7M0wasDLoN26dXNePIoJKU2hEqRLMWs+f3kVzOAceuihVq9ePefd9swzz3ThCd5880178MEH86d9wpTk+j4YmLiknwvzmu3atbNOnTrZBx98UHRjE0QoTaESpEtQDaVvX8FWqbVo0cKV9qCDDrKZM2e6Hwn+1ej5lEp4MsRb9THHHFMqFarylS5VKKptiEs1HFVf8EfIQxxzOWnwoZamUAnSpeo2Sf1GwQzO559/7gpP15ega8zj7N27t8r5YCnIyPV9MHVxST+XO++801glynwOKzgJalgqSVOoBOlSqrugZvkWbEht8+bNTqPdu3e7z507d7ogbCwiKJXI9X0weXFJPxev4auvvuoMzhFHHOGMj99frM80hUqQLsWq9fzlUzCDQ1RCYnj07NnTVqxYYccdd5xbsbZo0aL8aa+URKDCCTAEzLwNv5umTZva4MGDXYnXr19f9JIz3JmWUAnSpejVn5cMC2Zw0O65556zs846y6644grbsWOHC02QhhfX8kJOiYhAEQhgZIiB41+EZvgT40N4gmILjXxaQiVIl2LXfn7yS+QtOml4Aq8i482sUOPHEkcUniAOJZ1TVwgQW4qVhLwDR0BDiQiUK4FEBqdcCym9RUAEREAESk+gYKvUSl80aSACIiACIpAmAjI4aaoN6SICIiACFUxABqeCK1dFEwEREIE0EUi0Sq2m4QmSFljhCZIS0/kiIAIikH4CiQxOkvAEeIrG5US2zJ8/3/75z39m7672XeEJquHQFxEQARGoCAKJDA4ljhuegDeiN27cWAXp6KOPdu8TLF26tGpf2IbCE4SR0X4REAERKF8CiQ1O3KJ++OGHxp+XIUOG2KZNmyyOwfHX6FMEREAERKByCBTM4GQi8rFx5s2bl7m76Ntywx+MXFzEJZhA8F7dL+nnEqxh6fcWZZXagAEDnKfouXPnlrTEuMNQeIL9q0Bc9mfCHnERl2ACwXvTdL8Ea1j6vUUxOIcffriL9rlhw4aSllhu+IPxi4u4BBMI3qv7Jf1cgjUs/d5Erm3Gjx9va9eutYkTJ8bWnJVqrFh77LHHXBz22BfuO/F3v/udvfjiizZt2rQkl+lcERABERCBFBIoeA/n2GOPdeGlZ82alcLiSyUREAEREIFiESiowSEsbseOHe29994rVnmUjwiIgAiIQEoJJFqlxjs4vXr1sptuusmuv/76nEViWfTPf/7znOdln5AZnoA8JSIgAiIgAuVPINEcTvkXVyUQAREQAREoFYGCDqmVqlDKVwREQAREIH0EZHDSVyfSSAREQAQqkoAMTkVWqwolAiIgAukjkGjRQE3DE/Tp08dWrFhhOOWMIwpPEIeSzhEBERCB8iKQyOAkCU8AhosuushOOOEEa968ue3atctWrlxpf/3rX3MSUniCnIh0ggiIgAiUHYHEQ2pxwxM0bdrUhSP46KOP7Le//a0tWbLEevbsafR2cgk9oVK7wcmlo46LgAiIgAgkI5DY4MRNvk2bNtakSRNnODAeb7/9ttWvX9/at28fNwmdJwIiIAIiUEEEEg2pJSn3unXrbNWqVda7d2+7/PLLDa8DW7ZssVJ6jJZb9eAaFBdxCSYQvFf3S/q5BGtY+r0F6+FQtDVr1lijRo2MG5Qez+rVq0ta4jS5D5cuwbeCuIhLMIHgvbpfgrmkdW/BDE6XLl3stNNOs2XLltm1115rLARg/ub0008vGQu5VQ9GLy7iEkwgeK/ul/RzCdaw9HsTubZJEp5g5MiRdtZZZ9mUKVPMR/q87bbb3FxOnJVqoFF4gtLfINJABERABPJFoGA9nIULF9ru3butX79+Rm9n7NixbniNxQMSERABERCBukegYIsG8BS9ePFitxT6qquuqnoPZ86cOXWPskosAiIgAiJgiQxO0vAEkyZNcoj79u1ry5cvj+1pQOEJdGeKgAiIQOURSDSHU3nFV4lEQAREQASKRaBgczjFKoDyEQEREAERKA8CMjjlUU/SUgREQATKnoAMTtlXoQogAiIgAuVBQAanPOpJWoqACIhA2ROQwSn7KlQBREAERKA8CMjglEc9SUsREAERKHsCMjhlX4UqgAiIgAiUBwEZnPKoJ2kpAiIgAmVPQAan7KtQBRABERCB8iAgg1Me9SQtRUAERKDsCcjglH0VqgAiIAIiUB4EZHDKo56kpQiIgAiUPQEZnLKvQhVABERABMqDgAxOedSTtBQBERCBsicgg1P2VagCiIAIiEB5EJDBKY96kpYiIAIiUPYEZHDKvgpVABEQAREoDwIyOOVRT9JSBERABMqegAxO2VehCiACIiAC5UGgQbt27cbHUfXYY4+1n/zkJ7ZkyRK78sor7dBDD7U33njDXapj4qJ7It7vIc5vTeeIQKUSiN3D6dWrl+3du9dx6Nixo3344YdVTHRMXHRPxPs9VP1otCECdZBAvX3G4quoco8cOdL69+9vTZo0sfr169uOHTusZcuWtm3bNvvoo4/s4IMP1jFx0T2R4/fw2muv2cMPPxz1U9MxEah4AjmH1Bo1amQ7d+60zp0724oVK5zR2bVrly1evNg2bdpkGzdu1DFxMd0T0b+H9957zzZs2FDxDYoKKAJRBHIOqS1btsxWrlxpBxxwgD3zzDPuc82aNe5p7cknn9QxcdE9EeP3wAOaRATqOoGcQ2pMBjdv3tz2LS6wVatW2eGHH+6e1NavX++GUXRMXHRPbLCo3wO/m6lTp9b1tkblFwHL2cNp0KCBHXTQQfbpp59aq1at7KuvvnLzOLDTMXHRPZH791CvXj01NSIgAvsINMxF4c4777Rf//rXbjl0mzZt3Ons86JjS0xczHRPfP2LiPo9+N+MPkWgrhLI2cM56qijrEWLFrZ06VI3rJY58alj4sJQq+6Jr5uPqN9DXW1gVG4RyCSQcw4n82Rti4AIiIAIiEBNCeTs4dQ0YV0nAiIgAiIgApkEZHAyaWhbBERABESgYARkcAqGVgmLgAiIgAhkEpDByaShbREQAREQgYIRyLksOm7OQ4YMscaNG9uMGTPiXhJ63nnnnefe/eEEPB3ghypfkk8986VTWtLhfasRI0bYK6+8Ym+//XZa1JIeIiACFUIgp8E5//zz7Ywzzqh64XPz5s321FNP2euvv14NQe/evZ3ngXwYHBq+tm3bOh9t27dvz6vByaee1QBUwJcDDzzQOWrFE7gMTgVUqIogAikjkNPgeH0feeQRZ1D69etnl1xyib3//vuGMfDy7LPPGo4+8yEPPPCAS+Z3v/tdPpKrlkY+9ayWsL6IgAiIgAhEEohtcNauXeueeunhjBkzxoYOHWrTpk0zhqjOPPNMlwneoxctWlSV4cknn+x6R/RWEJx+3nHHHW57woQJtnXrVjvkkEPcd4bO/v73v7vtqP9+/OMfW6dOnZzDyM8//9zlh5+qCy+80E444QS76667ql5ExA8cYRVuv/32SD3Hjx/vvF4fdthhhhsSdJk0aZJTg/AMp556qhsuhAFleeKJJ2zevHlRajrjjGHGzxg64Bro6aeftueff95OO+00O/300905hHtgyPChhx6y73znO3b00Udbs2bNXPgHwkFw7Zw5c1wYiLBjM2fOtDAuKBm3fB988EG1MkXVHydeccUV1qVLF9fbnTx5crVr9UUEREAEsgkkXjTwn//8x3bv3l3lzuWdd94xeg3Ex8GRZ6YMHDjQGQbigNBIb9mypeqwd/o5f/58W716tTMW3bp1qzoetoEbfBptGmgaSIxBnz59nOEhzW9/+9vu0m9961tGev4t+Cg9uQ4jtmDBAlu3bp1Lr2nTpi6dAQMG2GeffeYaffyGEQuIuapcggHs2bOn6wlimMkfQ0K6w4YNc0OUGJKPP/64qgwYF9J+4YUXnIHBgGOUiagadQxdwrhwLFf5MIbPPfecKxvne4mqP86hLHihQDeJCIiACOQikNjgkOCePXtcY8M2vZbZs2dXOfRknxffEGGgOMcPlfnjGBoMx3333eeiiR5//PH+UOjnX/7yF3v33XetQ4cOzhDQIyHcNR55MUBHHnmku5ZeBMcwkEiUnhx/b1+8EgwDehKK4aSTTnKGBwNDGo899piLAcS5caR79+4uQN29997rDOTf/vY3t6Cib9++rpFeuHChPfroozZ9+nSnJ3NLCMOUGGgYoxNB7ryBizoWxsXrGlQ+DJkvH7oQPjxTctUfzAkzDluJCIiACOQiEHtILTOhhg0bGsNZueTll192PY7LLrvMLrjgAtdgT5kypeoyhueQL774whkPjEguufrqq619+/auR8VTPYKBQGj8zjrrLCPkNYaHyW8a2jhCbwJhOA2hV0AvCe/YPpYJvZ+4QmONQc0WFkQgNNYIPR+G1cgPI0N+CJ8YasJ6M7Tm9/nP7GNRXLgmqnwYPyTbcOSqP4yURAREQATiEkjcw6HnQAPvjUVURvQWbrzxRjcfwvknnnhi1ZwN17EqygvDMwwvZQqNrjcm7GdOgXkWGrqbbrrJGI7LFALCYQgZVsNYYIDiim/oM8/HKNBLoieAxDGI/nqMofci7ffx6RdaUA6ENOnBYHSQID3cgYhjubiEpYuBoXwM/SF+Ps192fdfrvrjXrj44otdvfhr9CkCIiACYQRiGxwmh5mXYLEAjSYT1bmExQU9evRwvQYMzpdffun+/HU0ujSWl156qVvh5nsX/jgGiEl3hpsYNkNoIJk3oBfDsFe20KNhcp0GHANUG2Eyn/kN5nGGDBlixx13XOzkGN7Dk/JFF13khq3oeWEI33rrLReymzIdc8wxdu6557oy+R5P7AyyTszFJet09xWDjYHu37+/4wnTTMlVf8ydDRo0yJUj8zpti4AIiEAQgdhDauecc45rxDEcNOQMgyHXXnutG+KiwUP++Mc/OoP0q1/9ynDXzqQ+Q0X8MUfgh3Y4l6d5htu4lgaXEAiZ8uqrrxoT15dffrkbnmK1Gd8xelzDggCMWKbQiNJwsmw7U6L0zDzPb/ueBgsJyJP3kYjqiDCclUuY88GQ0iDDAD15RwmdX3rpJZfmj370I8eAnhgLIfz8E2n7/IPyyT5GmXNxyU7Hp8H7VPQ8WXHGAoVMyVV//lyflv+uTxEQAREIIlDw8AQ8xdMjyR7++sMf/uBWRjGHwTzFm2++GaRf4L4jjjjCDbUtX758v+MsY2YVGMuaMVj5EpZDDx482E455RS77rrrYidLz7Bjx45uLok5JS/M5dD7Y1grydyQvz7oM4pL0Pl+Hyv06I0F8QqrP3+tPkVABEQgLoHYPZy4CWafl2seJXsYLfv6oO8rV64M2m0//elP3dAbDXhQ4xl4UY6dvN/CC63MyTAEyLs4SYSeVnZvi+vpTdDTyaeEccmVB0Yve8GAvyZX/fnz9CkCIiACuQgU3OCEKcBchn9HJuycpPsxCgzL8YJlvgQ96TkwhIdLH96dkYiACIiACCQnUPAhteQq6QoREAEREIFKJBB7lVolFl5lEgEREAERKB6BBvsmi8fXJruxY8e6CXy/gqs2aZXqWsIhsDSYZb681Jo5uZ+pExP9LA3fuXPnfu8MZZ5Xiu04ZWBpN0vGWajhhdWHLGzAe0O5SNJ64HyWobOc378sXC5llZ4iUEkEcvZwWOY8atSoamVm+e6f/vQnY0UY78LE8YFWLYH/fvnud7/rljwHHSvmPhokVqHh/LNz586hWXv3/f6doNATS3AgThlodHGtkym8W5T9/k3m8ZpuF7Juk9TD//zP/9j1119v48aNs1/+8pf2gx/8oKZF0nUiIAK1JJBz0QAvUGZ6BCA/3+DWdjkvb+Lj0qXU4n28FSIcQrHKFqcMxQzNkJa65R0hXlLGPdHo0aPdS6o8INX2Rdti1avyEYFKIpDT4OApGaPAcBPvt7AKDK/HvMjJj5gnR3oFt9xyi1vJlenaP8xlPm/X8/Y+y43xE3bzzTc7pv/617+q/JZlQ6YHctVVVzl3KzScXvx+9vFyZZDbf8694YYbnDdovFYjv/71r52Xa9y3RElmeIJs9/1h1+UKlRAWnoD0aqpnmC7sZygtLIRE5nX+POqQcAO8EIqHBIwH9c17TzghjZJcdRtV9qh0o+ohKs3MkBcMqTVo0MANm0blpWMiIAKFIZBzSA3XLhgchtF4D4VP3PRnOu/EmWaQa3/Gy4NCCfB2O0uMWRZNyAK2+Yt6xwUPBzytMt+QKXiY5sVSHGWGuf3nfM7xXpf5jpdk7w2Z72GCYQxz3x92DTGBYBYUKiEqPAHp1VTPMF3Yz5xNWAgJfx2GmkadOsDYwAfvCsxpcS0v5sKaYccoiarbXGWPSjesHuKmOXz4cKc77xUpmmkUaR0TgcIRyGlwPvnkExeKAMeOxLxp3bq1axRphL3gvyzbtT/Hwlzmcz6GiMl3npzZ5g+jEiUcP/jgg92c0W9+8xs7++yznRHkyRWjR2Md5vY/Kt2wY7nc94ddx3BNWKiEXOEJwtKszX5e6qQn5x2EZqfF/A/GhnohnALCIgoeLHBFxJAqdYU7I3o9URJVtzUte1Q9xEmTXjAGFQ5//etfo9TXMREQgQISyGlwcKDJUyTDKgyp0Ajx9E4j78X7R/NeAziO4DL/+9//vnPh4j0RZ3p/9tfH/WQlHI0jjQy9FRx7YoCIGcN+xI/NZ7r9j5t+9nn4EqNXFea+P/v8zO88SeOxmgl5eoU+VEIh9MzMtybbPEQwHOl1Iw32IfR0cH3DH94RarPKy6eftI6i6iFOmrgQojfLQ41EBESgdARyGhwaSn6sGBrcxfCkSyOf6egxyHljHJf5FNs7/YyDgKEQjBmTvgzxYMRoGBma8wYwzO0/DaofUsMfWpBQjkyDyBMx+oW57w9Kw+8LC5WQDz19HkGf2WUIOid7H8NojzzyiFupxwMC4nuw+MC77bbbqv5yzeFkpp1dt7nKnnlt5nZUPcRJk+Ff0sjVg87MU9siIAL5J5DT4ODaBeHJlgafORcm++lV5BIaHIa5eMoPCiVAz4gnVAwAT9K5hHABDAuxSo6nVeYXSH/FihU53f5jIJn/4WkZYxgk2eEQaGyj3PcHpZG5j+Gl7FAJucITxNEzM4/s7ewyZB8P+o73a6Ka4s2b4Ssm4dmGNaz69evn6okgeiwsiCNBdZur7GHpRtVDnDR5YGKxAD11iQiIQOkI5DQ4NIA0ujRkyMaNG90njWmY8JRNI8E5hBIgvAA/eHoZmYIBwYARxItVYzRsuQQ9mFdieI+eDfMKDHmxjTNMvB7j9h8vxwxr+WEUGiaGBa+88kq3yo58sntm9OBonND3kksucaowCU6PCvf9rM5LIjBAMp135kPPKB2CykBoBt6nwiccvUK2J0yYsF8y9F54kKDOeMBg3ocHAlYiEm6CMAtxGQTVba6y76dQxo6weoiTJg8zeOyOq3tGttoUARHII4GC+1Krqcv8mpaRBjLM7T9zKjQ8PmR03Dyi3PdHpcFEfFiohELoGaVLbY6xOo2hRoYx/RBWbdKLKntUulH1UNM0o/LTMREQgfwSKLjBya+65ZOaD5XA0NLvf//78lFcmoqACIhAgQjkfPGzQPlWfLIMSeU7VELFQ1MBRUAEKpqAejgVXb0qnAiIgAikh0DORQPpEzd+kQAAFbJJREFUUVWaiIAIiIAIlDOBWocniFN4Vgmx8om31Jl85gXOOO7046Sd9BxeGmW4i9VtSaSm1yXJo9DnsqQ5OzxBofNU+iIgAiLgCcSaw/nFL37hlhv7i/hkyTMhCuIIHgd4d4flzN4rAauKcDmC409WPrGMtpCCG5wzzjjD6bF37163Ui3TsWNY3jW9Liy92uznBUw4Zgp+2+6///7MXaHbhCfA+M+YMaPaOYQS4B2ViRMnVtuvLyIgAiKQTwKxDA4vcNIryfTSHHd5LEtqMS6TJk2yV155pUr3OO70q06u5QaNKY40eYfowQcfdEuVcULJpL53WxOURU2vC0orX/t4/yhTZ2/A46RP/WUbLK5LSyiBOGXQOSIgAuVLIJbBoXg42fQvMsYt7vjx46vcyRCLBLf9L774oj3++OORSYSFNeCiTDf1uGShl0TIgXnz5oWmOXDgQPfS36xZs4wYPo8++qiLAIkxzGy8sxPIdR0vT/JirPcThy8532uKcu0PF4wfbngw5pkhHbJ1yP7O2//Z9TB48GDDG/Jzzz1nTz/9tHvp9dJLL3XpTpkyxXkHCApPkCuUQHbe+i4CIiACtSEQ2+DQsPPGupe5c+dGNvKcR+PXoUMHGzRokOsd4YcNn1a5hDkWPATghYA4PLzhjlsdXtjETT0xejAwzKswROR9pIWlSw8L8W/841OLhts7Ga3pdVxPjwEDgLdqek3ozdv6uPbHSNOrwPsBxg13MRg4ruMlRq7DTQ9lfOihh2LNK3Xv3t2uueaaKpUx4ORJ5E48Iq9cudJwQYO7Gh/7B0emGDY8OWSWmbf38QCOZ2g8LGCwkKgwEVUZa0MEREAEEhKIbXBoPJmD8YLx4Kk6KCQzBgM3Kfjn8r63MBi+wfdphH0S1gDXNPxhXGgsfZRRDAw9FRpH3OXQyOYSGlPEu+VhGzc7LGCIKgNlRoKucwf2/UccHowFw2+458GwMNyIs1Pc6WS79vc9KubACOmAnznc5uBrDiOeS+DuHWtyLt8RYtj85Cc/sR/+8IfOCP7zn/+s8gqAkeePvDKdk6IDf+iMXzrvBsglqP9EQAREIM8EYhscnoTvueeeatmPGTPGeY6utnPfF98IZu+P+51FBvQYyBPjhdBQ4iYH/2feNU3cENf0ZhCGvvzcE5FGSRvDgPfrbKEM3kAGXefP9x6IWfWGcaRHR+ONYBz5Qxh682Xhu597yQ7pwLEoofcR5LEZPeCC402cmbKYQCICIiACaSIQ2+AEKf3vf/87aHeifdnu9H1YA57+eeKnhzRq1CiXJnFUmK/AozFP4zTu2cKQG8aKRQ5+XoehOaRr165uyAmfavRIMBBRZWBVW9h17sC+/+jBeCFNnIv6HghDZnPmzPGHq31mOw7NPBhUhszjQdt4wmbeCMPGsBvDkPQw4wq9SIkIiIAIFJJA/UImHiftIHf6NH5BYQ1YOk1jToOMIWLeIlvYx1N+5jEMDx6vmWNh7oR3gOjh5OoFxLmOiX+MJJP0zOfQY6mta/+gMvhy4vEYY+L/GHZE6G0yTEgvlGijLOcOMsg+ncxPelvMc8UNE5F5rbZFQAREIC6BWD2cqKfxuBmFnYc7fVaDERKA+ZDbb7/dfedFUQwP7uczwxosWLDAHWdSnl4MwgS5F7/s1w+jsZ/hLnpEzPcwXEd6zKXkMjhxroPNZZdd5nSlB8ZSawTX/hg+XPtzDvNBYb0dzs9kHFQGzkF4cZM/L8yNYaAwLtOnT3e8mFMiRAMhFnhXisUe9Pp8L4bwBAwtEnIAwZB33df7I0wEhpMl69SLRAREQATySSC1vtRyhTVg1RzDazyVX3fddVVMbrzxRrfi6s9//vN+K+IY8mI4DsPg51CqLozYCLvuD3/4g1u8wCowXibFfX+2MCHP/FMS1/5RZchOX99FQAREoFwIxOrhlKIwLO8NEt7RoQfABDzDWZlLeBkuYyiO5b5By6/psWS/wxKUR/a+XNf5if/s6/ieqxeVfU2uMmSfr+8iIAIiUC4EUtvDCQNIQDN6PwwPEdEzapgqLI187WfYipVhL7/8cr6SVDoiIAIiULEEys7gVGxNqGAiIAIiUOEESr5KrcL5qngiIAIiIAL/JSCDo1tBBERABESgKARkcIqCWZmIgAiIgAjI4OgeEAEREAERKAoBGZyiYFYmIiACIiACMji6B0RABERABIpCQAanKJiViQiIgAiIgAyO7gEREAEREIGiEJDBKQpmZSICIiACIiCDo3tABERABESgKARkcIqCWZmIgAiIgAjI4OgeEAEREAERKAoBGZyiYFYmIiACIiACMji6B0RABERABIpCQAanKJiViQiIgAiIgAyO7gEREAEREIGiEGjQrl278UXJqcIzOeigg+zCCy+0nTt32scff1xV2iFDhtjRRx9t77zzTtW+ctsoVhnGjh1rBxxwgK1fvz7viFq2bGlDhw61E088sWB55F3pBAlWevn69u3rwsoT7l1SvgQaxlH9tttus0aNGlU7ddGiRXb//fdX2xf05bvf/a41bdrUJk6cGHS4YvYdeOCB1r9/f/vwww/t7bffripX7969jcZgxowZVftqs1EKnsUqw0knnWS7d+827q18y9VXX+3u4U8++cQ2bdqU7+Rjp1eo+ktL+cJA/OIXv7B9D7fVDr/33nv2pz/9qdq+fv362bhx4+ypp55yv5mzzz7bzjjjDFd3e/fudSHd//73v1e7Rl/Kh0Asg0Nxli9fbgsXLqwqWdwfbZs2bax58+ZV19W1jWeffXY/Y10bBqXgWe5lOP74440e6KRJk+yVV16pDf5aX1uI+ktT+cIA1atXz/VcuZe8bN++3W9WfZ566qm2detWZ2x4UP32t79tGzdutAcffNCGDRtmJ5xwgi1durRaW1R1sTZSTyC2wdmxY4fNnz9/vwKNHz/e3RCHHXaYcVMtW7bM/bDPPfdcGzBggGts69evbzfffLO79l//+pd7SmFo46yzzjJ+gHv27HEG7W9/+1tV+hMmTLCVK1fa4Ycfbq1atXI3Kz2tKKEncckll7hrmjRpYp9++qk9/fTT9vzzz9tpp51mp59+uuttUJbXXnvNHnroIZdc1DFOCNNl5MiRxg+kcePG9sEHH1RTjWGoM8880+3DOGc+tYcx4+Qf//jH1qlTJzfs8/nnn7vrpk6darXhefLJJ7unxLZt2zp91qxZY3fccYfbjvqvpmUISzNXGbiuc+fOdsstt1S7l9if637hnCCBNfWDjB492g17vvjii/b4449H3hOcH1Tva9eudUOkzZo1s23bthn3NvfanDlzbObMmTWuP/ILk6j7M6p8YekNHjzYhg8fbs8995z7fRxzzDF26aWXut/ulClTwi5z7Gjw77rrLtuwYYM778orr3Tlv/3220Ov8wf4nQe1If74UUcdZV26dDHqBxk4cKDBedasWbZu3Tp79NFHjd42Bjbz4ddfr8/0E4g1h8OTBY0+Qx40sPxhXFavXm3nnHOOa8QXLFjgSst8xQsvvGA0ljS0PFlyoz3zzDPOgDCX0bBhQ/vBD37gzv/Pf/5jjMtyE/Ek48fvSZcuODcaxoEfdq6bjB8NN+S7777rjAwZMKeCMfjf//1fo0s+b948dxP36tXL5cUQS9gx/6MK0+V73/ueffbZZ0bZu3bt6oYO33zzTWOogLxokDCoNEgw8RLGDE5wwGhTZnqGfIcJRqKmPMeMGeN0Y5gCNgyPLlmyxKsT+lnTMoQluGvXrtAycA/wAEIDk30v8aSb634Jy5MhOp6kMWQMa7711lvuPuS+qEm9c+8ecsghrlHkHuI38NVXX9m3vvUtd2/VpP6i5iUoe5SeYeWjlxAm6NyzZ0877rjj3P1w8cUXu1MfeOABN08Sdh3MBg0aZA0aNLA33njDlZmHCH7T9DqihJ4KbQEPDqTB35dffmkYcC/oQf3fd999rs1g3gYDhCHfsmWLaydIh/soynD59PSZPgL146rEzUaPwf/x3QsN7LRp02z27NnuyRzDxD56FpxHQ8o2f5s3b3ZzHRgwGlDmPjiHHx03Y6bQ0N599932xBNPuJsw81jQdvfu3e2jjz6ye++91+VFj4lGhhu3RYsWzmDxlDR9+nRnMDFOUccy88jW5dhjj3WGFoNJmtkNOAYCHvSmgiSIGef95S9/cY1Ahw4dnDHDsB966KG14onBQ2ic0ImGJY7UtAxhaUfdE/6aIC7MjcW5X3wamZ/UD/cEwtwa9yB51LTeSQcD9vDDD7v7mrRI3/eialJ/pBkmufQMK19Yen7/5MmTXcP9wx/+0Fq3bu3u4aAhLn8+n6tWrXIPb0ceeaTbTc+L+xMd4gjtAA94/i+zDeEe5/fLA5s3wP6+5UHUC0aKhSWS8iTQMK7aPIlkDnllXofhQHgyR3LN2XCDIwyB8YfwRMaTS6bQu0ki3KA8vWULT1YIPxiEJzIMAXpGHXMn//e/bF3o/vNk63tdNM5JJIwZk7/t27d3vSPPI9cPLBfPl19+2Y2FX3bZZXbBBRe4Ic2ooZO45QgrQ9zrg84LSpOHBSTX/RKUXti+mtY76VHv/hMjTk+QHjhSk/pzF4b8F1fPkMtDd/Pgt3jxYjesuGLFimpDvqEX7TtAz4aeKL07DA+LZDC6cYQe/z333BN4KisI4coQuBf/sEaP0htDOPvfhT9Pn+VDILbBiSqS/wGGncNTUKbQS0LoFjP2HSb+SSfsePZ+bkSGsLLF36zMM9H1p/fAEyk3dNSxzHSydcHAUC6GJigHP4okEsSMuRZ0pLc4d+5cGzJkiI0aNWq/ZJPypFfDHz1Inkr5hLsfMtwvg5g7gsoQ81LHLujcoDTj3i9B6YXtq2m9k16Qjuyvaf1xbZjE1TPs+rD9DFVxH/CgR8+CYfI4PZUnn3zSDYcxtMUwYqaBCMsr134eJBiKpweaeU8yjIZ03TdczXwu+THEyDC2pDwJxB5SY2zVz9/wyURjHOGJlae0U045pao3w/ATjT0/UJZBcpwnbxrY2ghzNcz7XHTRRS4vnsT4YTBuT/edITT0ZtyZRpseT9SxKF0wMsxTMdzD0x5/+RD04ome9BiazJaa8GQOp0ePHq4HypMtwxL8lUqCyhClSyHul5rWe5SeHKtJ/UWlWSg9uSe4B+hx8Lth+TEPYnGEHg0Ggt8wBqi2MmLECDevyENRpjDfym+MhQospDnvvPNcTzJzAU7m+dpOP4HYPRxuMP688DRC9zpIMp8AmfzmCYUJQSb1mT949dVX3RM3T9usued8xnejejtB+WTve+yxx1weTEhiFPlBMYfDU9NLL73kVr386Ec/cvmhO+P5SNSx7Dwyv7/++uvuKfGKK65wT4qZx6699lo3NOZ7I3/84x9db+pXv/pV5mlV2zDAiLEyh+EFrkPvbMNQE54M/8EDxvzRgPuhqyoFAjZqUoaAZPbbFVaG/U7ctwMuDGfSGOXzfsl1TwTpkr0v8z7nWG3qLztt/z0fevq0/Ce/Q4wLc5mkz2pNfhes8Mx+L8Zfk/lJOXkgev/99zN3R25ns8o8mQdBjFj2y9GMKvAbZXUpQ5X8FhjClsHJpFde2/X23ThfD0iXSG9W9TBHwWShHz6orSoMF3Ts2NHdxIwxe6EnxZM+w2HZczJRx/z1QZ88edGrwojmS4444gjHhHefkkoYT3p29JxoLMpZwspX0zLVtN6j8qtN/YWlWwg9w/LKtZ/XAVi5yntNtb3vGW3gxU5e5gwzJAyjsUiHEYk4D0q59Nfx0hEoucEpXdGVswiIQFICP/3pT92qSRr+3//+90kv3+/8bt26uRWILGCQVD6B2ENqlY9CJRQBEchFgIU5LLzJx2IB8vIrR3Plq+OVQUA9nCLWox8fv+qqq4qYq7ISAREQgXQQiL1KLR3qSgsREAEREIFyJSCDE7PmdrTfYTsP+ca7QszL7MvGX9qODsHeBuKmofNEQAREoBIIxJrDqZTwBGvPXGs7mu+wXY122cFrD7Z2L1V3lx5Uodt6bbNN3TfZzkY7rd5X9azZ582s/cL21mT91+5igq7x+zYM3GBb22+1vfX3WrPPmvnd+hQBERCBOkkglsGBTLmHJ9jTco812N3AWm3c58PtsE3W+JPGsSp8T+M91mZtG2uxuoXtabbH1vVdZ1uP2Grt17ePvP6jkz+yjzt8bO3fbm9NNzW1dScmc9MTmbgOioAIiEAZEohtcHirOOgdDtyj41yvmOEJeNGSd2148RInhHGk4faG1mFuB9vSZ4vV2/ev6camcS6ztq997dKfkxs0b7DvTUSzLw+Ifkv/qwO+si0dtlirj1tZ6yVf+41r8lnuHlEshXSSCIiACJQpgdgGB39L11xzTVUxiVmBy30cYPLyI8YIj699+vRxby5jDHDWh+sXnGoSewPBCSi+k84//3z31jsBmXhxkhf6eAPeO8PElY5/2Yu0cWjphRfBeInRe5P1++N87my50xrtamSNPmoU5/Rq52w+drPtPmC3tfjwa2eS1Q5mfPm026e264Bd1m7jN0N2XzaINlIZl2tTBERABCqSQGyDgy8y70QREpmuxXFLgcNJ3F3Q+8AHGM4n2Y8hIYaIdyPDtbhuwd08fqKywxN4g8N5PiQA25nC2n16XEk9NJPGrma7rPEX8YbTMvPc3HezfXToR9ZmfRtr9WarzEP7bX/R5gur/1V9a7nya0/YnLCn0Z79ztMOERABEahLBGIbnDSFJyD+TE1lV9Nd1vKjbwxBnHQ+PuFj29hto7X9sK0d8mJur9B7G++1A/YcYPV3fr0IkNVtO5popVoc1jpHBESgcgnENjhRCKIc83Gdd2Dp0/A9JYbKohx2ZocE8NfjxBFX5cS+CZpX8udlf+5st9N2HrDT2m7/Zl4m+5zs75v7bbZNXTZZu/fbWdtX4l1X78t6Vn/vNyvOt3fevm/qp6Qu67KLpe8iIAIiUHQC37SKObJOU3gC5onwCB03RAIr1D7r9pl92unrODz199S3zzt9nqPEZhsHbLQN3TZY23VtrcnmJi6NHR1z91SabGliOxvvG4Lsvi9C6r6/jw/92A78+MCc+ekEERABEahkArF7OGkMT5CrZ+Ur7tOun9q6o79Zlrz2mLXWYnsL67Kmiz9lv09WmrGsmZ7Jxk77Qtx2+vqU1ptaW8cPOu53fuaO5muaW4sOLWzN8V9HAW25taW1f3nfoocLMs/StgiIgAjULQIl96WWb3fzaao+vBM02NnADtjydQx2+VJLU+1IFxEQgWITiN3DKZRiYTEwCpVfMdON442gmPooLxEQAREoJYHYczilVFJ5i4AIiIAIlD+Beuecc46WT5V/PaoEIiACIpB6Ag3fX7M2p5IHtW6T8xydIAIiIAIiIAJRBDSkFkVHx0RABERABPJG4P8DkKFNqH+hrIIAAAAASUVORK5CYII=;" vertex="1" parent="1">
          <mxGeometry width="412" height="354" as="geometry" />
        </mxCell>
      </root>
    </mxGraphModel>
  </diagram>
</mxfile>
